<?xml version="1.0" encoding="utf-8"?>
<!-- Generator: Adobe Illustrator 22.0.1, SVG Export Plug-In . SVG Version: 6.00 Build 0)  -->
<svg version="1.1" id="Layer_1" xmlns="http://www.w3.org/2000/svg" xmlns:xlink="http://www.w3.org/1999/xlink" x="0px" y="0px"
	 viewBox="0 0 399.4 147.6" style="enable-background:new 0 0 399.4 147.6;" xml:space="preserve">
<g>
	<path d="M81.9,46.2H47.6V35.8c0-4.8-0.4-7.9-1.3-9.2c-0.9-1.3-2.3-2-4.4-2c-2.2,0-3.9,0.9-5,2.7c-1.1,1.8-1.7,4.5-1.7,8.1
		c0,4.7,0.6,8.2,1.9,10.5c1.2,2.4,4.7,5.2,10.4,8.6c16.4,9.6,26.7,17.5,31,23.6c4.3,6.2,6.4,16.1,6.4,29.8c0,10-1.2,17.3-3.5,22
		c-2.4,4.7-6.9,8.7-13.7,11.9c-6.8,3.2-14.6,4.8-23.6,4.8c-9.9,0-18.3-1.8-25.3-5.5c-7-3.7-11.5-8.4-13.7-14.1
		c-2.2-5.7-3.2-13.8-3.2-24.3v-9.2h34.2v17c0,5.2,0.5,8.6,1.4,10.1s2.7,2.2,5.1,2.2c2.5,0,4.3-1,5.5-2.9c1.2-1.9,1.8-4.7,1.8-8.5
		c0-8.2-1.1-13.6-3.4-16.2c-2.3-2.5-8.1-6.8-17.2-12.7c-9.2-6-15.2-10.3-18.2-13s-5.4-6.4-7.4-11.2c-2-4.8-2.9-10.9-2.9-18.3
		c0-10.7,1.4-18.5,4.2-23.5c2.8-5,7.3-8.8,13.4-11.6C24.5,2.3,32,0.9,40.7,0.9c9.6,0,17.7,1.5,24.5,4.6c6.7,3.1,11.2,6.9,13.4,11.5
		c2.2,4.6,3.3,12.5,3.3,23.6V46.2z"/>
	<path d="M235.2,3.9l-16.4,139.8h-46c-4.2-21.5-7.9-45.9-11.2-73.3c-1.5,11.7-4.9,36.2-10.3,73.3h-45.7L89.1,3.9h35.8l3.9,48.8
		l3.8,47.2c1.4-24.4,4.8-56.4,10.2-96H181c0.5,4.1,1.8,19.5,4,46.1l4.1,53.2c2.1-33.8,5.5-67,10.3-99.3H235.2z"/>
	<path d="M326.7,85.8c0,14-0.3,24-1,29.8c-0.7,5.8-2.8,11.2-6.3,16c-3.5,4.8-8.3,8.6-14.3,11.1s-13,3.9-21,3.9
		c-7.6,0-14.4-1.2-20.4-3.7c-6-2.4-10.9-6.1-14.6-11c-3.7-4.9-5.9-10.2-6.6-16c-0.7-5.8-1.1-15.8-1.1-30.2V61.8c0-14,0.3-24,1-29.8
		c0.7-5.8,2.8-11.2,6.3-16c3.5-4.8,8.3-8.6,14.3-11.1c6-2.6,13-3.9,21-3.9c7.6,0,14.4,1.2,20.4,3.7s10.9,6.1,14.6,11
		c3.7,4.9,5.9,10.2,6.6,16c0.7,5.8,1.1,15.8,1.1,30.2V85.8z M289.8,39.8c0-6.5-0.4-10.7-1.1-12.5c-0.7-1.8-2.2-2.7-4.5-2.7
		c-1.9,0-3.4,0.7-4.4,2.2c-1,1.5-1.5,5.8-1.5,13v65.3c0,8.1,0.3,13.1,1,15c0.7,1.9,2.2,2.9,4.7,2.9c2.5,0,4.1-1.1,4.8-3.3
		s1.1-7.4,1.1-15.6V39.8z"/>
	<path d="M377.3,3.9v111.8h22.4v28h-59.3V3.9H377.3z"/>
</g>
</svg>
